<?xml version="1.0" encoding="UTF-8" standalone="no"?>
<!DOCTYPE svg PUBLIC "-//W3C//DTD SVG 1.1//EN" "http://www.w3.org/Graphics/SVG/1.1/DTD/svg11.dtd">
<svg width="100%" height="100%" viewBox="0 0 300 300" version="1.1" xmlns="http://www.w3.org/2000/svg" xmlns:xlink="http://www.w3.org/1999/xlink" xml:space="preserve" xmlns:serif="http://www.serif.com/" style="fill-rule:evenodd;clip-rule:evenodd;stroke-linecap:round;stroke-linejoin:round;stroke-miterlimit:1.5;">
    <g id="Grid">
        <path d="M150,30.004L59.954,59.979L29.96,150L59.954,240.004L150,269.958L240.015,240.004L269.987,150.019L240.015,59.979L150,30.004Z" style="fill:none;stroke:rgb(150,150,150);stroke-width:10px;"/>
        <path d="M150,269.958L150,30.004" style="fill:none;stroke:rgb(150,150,150);stroke-width:5px;"/>
        <path d="M240.015,240.004L59.954,59.979" style="fill:none;stroke:rgb(150,150,150);stroke-width:5px;"/>
        <path d="M59.954,240.004L240.015,59.979" style="fill:none;stroke:rgb(150,150,150);stroke-width:5px;"/>
        <path d="M29.96,149.981L269.987,149.981" style="fill:none;stroke:rgb(150,150,150);stroke-width:5px;"/>
    </g>
    <g id="stick">
        <g id="pos9">
            <path id="Stick" d="M149.974,150.019L240.015,59.979" style="fill:none;stroke:black;stroke-width:20px;"/>
            <g id="Balltop" transform="matrix(1,0,0,1,90.0154,-90.04)">
                <circle cx="150" cy="150.019" r="25.01" style="fill:rgb(199,0,0);"/>
            </g>
        </g>
        <g id="pos8">
            <path id="Stick1" serif:id="Stick" d="M149.974,150.019L149.974,30.004" style="fill:none;stroke:black;stroke-width:20px;"/>
            <g id="Balltop1" serif:id="Balltop" transform="matrix(1,0,0,1,-0.0237216,-120.014)">
                <circle cx="150" cy="150.019" r="25.01" style="fill:rgb(199,0,0);"/>
            </g>
        </g>
        <g id="pos7">
            <path id="Stick2" serif:id="Stick" d="M150,150.019L59.954,59.979" style="fill:none;stroke:black;stroke-width:20px;"/>
            <g id="Balltop2" serif:id="Balltop" transform="matrix(1,0,0,1,-90.0459,-90.04)">
                <circle cx="150" cy="150.019" r="25.01" style="fill:rgb(199,0,0);"/>
            </g>
        </g>
        <g id="pos6">
            <path id="Stick3" serif:id="Stick" d="M149.974,149.981L269.987,150.019" style="fill:none;stroke:black;stroke-width:20px;"/>
            <g id="Balltop3" serif:id="Balltop" transform="matrix(1,0,0,1,119.987,-0.0371244)">
                <circle cx="150" cy="150.019" r="25.01" style="fill:rgb(199,0,0);"/>
            </g>
        </g>
        <g id="pos5">
            <circle id="Balltop4" serif:id="Balltop" cx="150" cy="150.019" r="25.01" style="fill:rgb(199,0,0);"/>
        </g>
        <g id="pos4">
            <path id="Stick4" serif:id="Stick" d="M29.96,149.981L150,150.019" style="fill:none;stroke:black;stroke-width:20px;"/>
            <g id="Balltop5" serif:id="Balltop" transform="matrix(1,0,0,1,-120.04,0)">
                <circle cx="150" cy="150.019" r="25.01" style="fill:rgb(199,0,0);"/>
            </g>
        </g>
        <g id="pos3">
            <path id="Stick5" serif:id="Stick" d="M240.015,240.004L149.976,150.019" style="fill:none;stroke:black;stroke-width:20px;"/>
            <g id="Balltop6" serif:id="Balltop" transform="matrix(1,0,0,1,90.0154,89.9849)">
                <circle cx="150" cy="150.019" r="25.01" style="fill:rgb(199,0,0);"/>
            </g>
        </g>
        <g id="pos2">
            <path id="Stick6" serif:id="Stick" d="M149.976,149.981L149.976,269.958" style="fill:none;stroke:black;stroke-width:20px;"/>
            <g id="Balltop7" serif:id="Balltop" transform="matrix(1,0,0,1,0,119.94)">
                <circle cx="150" cy="150.019" r="25.01" style="fill:rgb(199,0,0);"/>
            </g>
        </g>
        <g id="pos1">
            <path id="Stick7" serif:id="Stick" d="M150,150.019L59.954,240.004" style="fill:none;stroke:black;stroke-width:20px;"/>
            <g id="Balltop8" serif:id="Balltop" transform="matrix(1,0,0,1,-90.0459,89.9849)">
                <circle cx="150" cy="150.019" r="25.01" style="fill:rgb(199,0,0);"/>
            </g>
        </g>
    </g>
</svg>
